<?xml version="1.0" standalone="no"?>
<!DOCTYPE svg PUBLIC "-//W3C//DTD SVG 20010904//EN"
 "http://www.w3.org/TR/2001/REC-SVG-20010904/DTD/svg10.dtd">
<svg version="1.0" xmlns="http://www.w3.org/2000/svg"
 width="450.000000pt" height="450.000000pt" viewBox="0 0 450.000000 450.000000"
 preserveAspectRatio="xMidYMid meet">
<metadata>
Created by potrace 1.11, written by Peter Selinger 2001-2013
</metadata>
<g transform="translate(0.000000,450.000000) scale(0.100000,-0.100000)"
fill="#000000" stroke="none">
<path d="M1555 4332 c-62 -21 -114 -60 -150 -111 -46 -67 -55 -118 -55 -302
l0 -168 1083 -3 1082 -3 47 -22 c66 -30 132 -95 159 -156 l24 -52 3 -1083 3
-1084 187 4 c166 3 192 5 233 24 60 28 125 93 153 153 l21 46 0 1275 0 1275
-21 46 c-28 60 -93 125 -153 153 l-46 21 -1260 2 c-1175 2 -1263 1 -1310 -15z"/>
<path d="M325 3121 c-37 -17 -77 -46 -101 -74 -79 -89 -74 4 -74 -1406 l0
-1256 29 -60 c17 -37 46 -77 74 -101 89 -79 -4 -74 1406 -74 l1256 0 60 29
c75 35 135 101 158 172 13 40 17 90 17 225 l0 173 -1083 3 c-1081 3 -1082 3
-1128 24 -67 31 -124 87 -156 152 l-28 57 -3 1083 -3 1082 -182 0 c-179 0
-183 0 -242 -29z"/>
</g>
</svg>
