<?xml version="1.0" standalone="no"?>
<!DOCTYPE svg PUBLIC "-//W3C//DTD SVG 20010904//EN"
 "http://www.w3.org/TR/2001/REC-SVG-20010904/DTD/svg10.dtd">
<svg version="1.0" xmlns="http://www.w3.org/2000/svg"
 width="734.000000pt" height="734.000000pt" viewBox="0 0 734.000000 734.000000"
 preserveAspectRatio="xMidYMid meet">
<metadata>
Created by potrace 1.11, written by Peter Selinger 2001-2013
</metadata>
<g transform="translate(0.000000,734.000000) scale(0.100000,-0.100000)"
fill="#000000" stroke="none">
<path d="M1977 7329 c-396 -38 -834 -217 -1147 -468 -95 -76 -271 -253 -350
-351 -263 -329 -428 -739 -469 -1164 -15 -148 -15 -3198 -1 -3351 39 -416 212
-845 469 -1165 76 -95 253 -271 351 -350 329 -263 739 -428 1164 -469 148 -15
3198 -15 3351 -1 416 39 845 212 1165 469 95 76 271 253 350 351 263 329 428
739 469 1164 15 148 15 3198 1 3351 -39 416 -212 845 -469 1165 -76 95 -253
271 -351 350 -329 263 -739 428 -1164 469 -132 13 -3235 13 -3369 0z m1963
-2909 l0 -1860 915 0 915 0 0 -590 0 -590 -642 1 -643 0 -55 116 c-206 436
-533 828 -924 1107 -182 130 -436 266 -646 345 l-105 40 -3 1645 -2 1646 595
0 595 0 0 -1860z m-1011 -2519 c170 -110 343 -273 465 -435 31 -41 56 -77 56
-80 0 -3 -157 -6 -350 -6 l-350 0 0 315 0 316 48 -27 c26 -15 85 -52 131 -83z"/>
</g>
</svg>
